<svg id="Layer_2" data-name="Layer 2" xmlns="http://www.w3.org/2000/svg" viewBox="0 0 3411.28 800.1"><defs><style>.cls-1{fill:#ffffff;}</style></defs><path class="cls-1" d="M2362.34,335.71h81v42.12h1.08q13-24.3,30.78-36.45T2520,329.23c4.67,0,9.36.18,14,.54a69.81,69.81,0,0,1,13,2.16v74a122.35,122.35,0,0,0-17-4.05,110.24,110.24,0,0,0-17.55-1.35q-23.22,0-36.72,6.48A48.75,48.75,0,0,0,2455,425.08q-7.29,11.61-9.45,27.81a270.8,270.8,0,0,0-2.16,35.64V598.15h-81Z"/><path class="cls-1" d="M2799.2,552.79a129.25,129.25,0,0,1-49.14,38.34,147.35,147.35,0,0,1-61.56,13.5,165.41,165.41,0,0,1-57-9.72,137.12,137.12,0,0,1-46.44-27.81A130.52,130.52,0,0,1,2554,523.63q-11.34-25.38-11.34-56.7t11.34-56.7a130.52,130.52,0,0,1,31.05-43.47A137.12,137.12,0,0,1,2631.53,339a165.41,165.41,0,0,1,57-9.72q28.08,0,51,9.72a106.25,106.25,0,0,1,38.88,27.81q15.93,18.09,24.57,43.47t8.64,56.7v25.38H2623.7q4.86,23.22,21.06,37t40,13.77q20,0,33.75-8.91a90.75,90.75,0,0,0,24-22.95Zm-68.58-115.56q.54-20.52-13.5-35.1t-36.18-14.58a60.83,60.83,0,0,0-23.76,4.32,59.55,59.55,0,0,0-17.55,11.07,48.52,48.52,0,0,0-11.34,15.66,51.56,51.56,0,0,0-4.59,18.63Z"/><path class="cls-1" d="M3114.56,598.15H3040V563.59H3039a90,90,0,0,1-12.69,14.31,96,96,0,0,1-18.36,13.23,113.17,113.17,0,0,1-23.22,9.72,91.65,91.65,0,0,1-26.19,3.78q-29.16,0-52.92-10a117.91,117.91,0,0,1-40.77-28.08,125.21,125.21,0,0,1-26.19-42.93q-9.2-24.84-9.18-54.54a165.11,165.11,0,0,1,8.37-52.65,144.89,144.89,0,0,1,23.76-44.55,116,116,0,0,1,37.53-31.05q22.14-11.61,50.22-11.61a139.18,139.18,0,0,1,47.25,7.83,75.66,75.66,0,0,1,35.91,26.73h1.08V189.91h81ZM3040,466.93q0-29.7-17-48.06t-47.79-18.36q-30.78,0-47.79,18.36t-17,48.06q0,29.7,17,48.06t47.79,18.36q30.78,0,47.79-18.36T3040,466.93Z"/><path class="cls-1" d="M280,222.88H406.33a360.66,360.66,0,0,1,87.21,10.26q41.31,10.26,72.09,33.21T614.5,326q18.09,36.72,18.09,89.1,0,46.44-17.55,81.81a175.92,175.92,0,0,1-47.25,59.4q-29.7,24-68.58,36.45a266.38,266.38,0,0,1-81.54,12.42H280Zm84.24,304.56H408a235.43,235.43,0,0,0,54.27-5.94q25.11-5.94,43.47-19.71t28.89-36.18q10.53-22.41,10.53-54.81,0-28.08-10.53-48.87a97.71,97.71,0,0,0-28.35-34.29q-17.82-13.5-41.85-20.25a185.85,185.85,0,0,0-50.49-6.75H364.21Z"/><path class="cls-1" d="M906.36,559.84a129.25,129.25,0,0,1-49.14,38.34,147.35,147.35,0,0,1-61.56,13.5,165.41,165.41,0,0,1-57-9.72,137.12,137.12,0,0,1-46.44-27.81,130.52,130.52,0,0,1-31-43.47Q649.86,505.3,649.86,474t11.34-56.7a130.52,130.52,0,0,1,31-43.47A137.12,137.12,0,0,1,738.69,346a165.41,165.41,0,0,1,57-9.72q28.08,0,51,9.72a106.25,106.25,0,0,1,38.88,27.81q15.93,18.09,24.57,43.47t8.64,56.7v25.38H730.86q4.86,23.22,21.06,37t40,13.77q20,0,33.75-8.91a90.75,90.75,0,0,0,24-23ZM837.78,444.28q.54-20.52-13.5-35.1T788.1,394.6a60.83,60.83,0,0,0-23.76,4.32A59.55,59.55,0,0,0,746.79,410a48.52,48.52,0,0,0-11.34,15.66,51.56,51.56,0,0,0-4.59,18.63Z"/><path class="cls-1" d="M1124,427.54a45.47,45.47,0,0,0-16.74-14.31,49.24,49.24,0,0,0-23.22-5.67q-30.78,0-47.79,18.36t-17,48.06q0,29.7,17,48.06T1084,540.4q13.49,0,23.22-5.94a70.81,70.81,0,0,0,16.74-14l53.46,56.16a103.4,103.4,0,0,1-44.55,27.27q-25.65,7.81-48.87,7.83a165.37,165.37,0,0,1-57-9.72,137.12,137.12,0,0,1-46.44-27.81,130.38,130.38,0,0,1-31.05-43.47Q938.22,505.3,938.22,474t11.34-56.7a130.38,130.38,0,0,1,31.05-43.47A137.12,137.12,0,0,1,1027.05,346a165.37,165.37,0,0,1,57-9.72q23.2,0,48.87,7.83a103.4,103.4,0,0,1,44.55,27.27Z"/><path class="cls-1" d="M1433.4,559.84a129.32,129.32,0,0,1-49.14,38.34,147.42,147.42,0,0,1-61.56,13.5,165.37,165.37,0,0,1-57-9.72,137,137,0,0,1-46.44-27.81,130.38,130.38,0,0,1-31-43.47Q1176.9,505.3,1176.9,474t11.34-56.7a130.38,130.38,0,0,1,31-43.47A137,137,0,0,1,1265.73,346a165.37,165.37,0,0,1,57-9.72q28.07,0,51,9.72a106.42,106.42,0,0,1,38.88,27.81q15.92,18.09,24.57,43.47t8.64,56.7v25.38H1257.9q4.86,23.22,21.06,37t40,13.77q20,0,33.75-8.91a90.9,90.9,0,0,0,24-23Zm-68.58-115.56q.53-20.52-13.5-35.1t-36.18-14.58q-13.52,0-23.76,4.32A59.42,59.42,0,0,0,1273.83,410a48.52,48.52,0,0,0-11.34,15.66,51.35,51.35,0,0,0-4.59,18.63Z"/><path class="cls-1" d="M1473.35,342.76h77.76V378.4h1.08a65.34,65.34,0,0,1,10.8-15.12,78.3,78.3,0,0,1,16.74-13.5,95.52,95.52,0,0,1,22.14-9.72,92.35,92.35,0,0,1,27-3.78q30.78,0,49.68,9.45A71.84,71.84,0,0,1,1708,371.92q10.53,16.74,14.31,39.42a300.47,300.47,0,0,1,3.78,49.14V605.2h-81V476.68q0-11.34-.81-23.49a74.11,74.11,0,0,0-4.86-22.41A38.68,38.68,0,0,0,1627,414q-8.37-6.48-24-6.48t-25.38,5.67a38.65,38.65,0,0,0-14.85,15.12,61.6,61.6,0,0,0-6.75,21.33,183.81,183.81,0,0,0-1.62,24.84V605.2h-81Z"/><path class="cls-1" d="M1910.2,420q-17.82-22.14-47-22.14a44.23,44.23,0,0,0-20,4.86q-9.71,4.86-9.72,16.74,0,9.72,10,14.31a131.67,131.67,0,0,0,25.38,8.1q15.38,3.51,32.93,7.56a123.77,123.77,0,0,1,32.94,12.69,73.72,73.72,0,0,1,25.38,23.49q10,14.85,10,39.69,0,25.38-11.07,41.85a84.91,84.91,0,0,1-28.35,26.46,121.93,121.93,0,0,1-38.88,14,231,231,0,0,1-42.65,4,206.77,206.77,0,0,1-55.63-7.83A103.91,103.91,0,0,1,1746,576l49.15-54.54q11.32,14,25.1,21.33t32.13,7.29a75.08,75.08,0,0,0,25.38-4q11.34-4.05,11.34-14.85,0-10.26-10-15.39t-25.38-8.64q-15.37-3.51-32.94-7.56a135.87,135.87,0,0,1-32.93-12.15,68.77,68.77,0,0,1-25.38-23q-10-14.85-10-39.69,0-23.22,9.46-40a83,83,0,0,1,24.83-27.54,107.43,107.43,0,0,1,35.38-15.93,162.1,162.1,0,0,1,40.5-5.13,190,190,0,0,1,52.37,7.56,97.14,97.14,0,0,1,44.82,27Z"/><path class="cls-1" d="M2335,473.26a59.92,59.92,0,0,0-119.84-.15h0a77.5,77.5,0,1,1-78-77.49v0a59.93,59.93,0,1,0,0-119.85v49.82c-81.09.28-147,66.34-147,147.5,0,81.33,66.17,147.5,147.5,147.5s147.42-66.09,147.5-147.35Z"/><circle class="cls-1" cx="2211.06" cy="224.33" r="22.41"/><circle class="cls-1" cx="2404.65" cy="211" r="22.41"/><circle class="cls-1" cx="2294.12" cy="266.79" r="22.41"/><circle class="cls-1" cx="2353.79" cy="297.64" r="22.41"/><circle class="cls-1" cx="2307.44" cy="371.83" r="22.41"/><circle class="cls-1" cx="2233.34" cy="326.14" r="22.41"/><circle class="cls-1" cx="2244.26" cy="388.78" r="22.41"/><circle class="cls-1" cx="2121.48" cy="427.19" r="22.41"/><circle class="cls-1" cx="2184.54" cy="423.74" r="22.41"/><circle class="cls-1" cx="2183.59" cy="487.45" r="22.41"/><circle class="cls-1" cx="2091.35" cy="477.94" r="22.41"/><circle class="cls-1" cx="2135.06" cy="519.43" r="22.41"/></svg>