<?xml version="1.0" encoding="UTF-8"?>
<svg width="2835px" height="434px" viewBox="0 0 2835 434" version="1.1" xmlns="http://www.w3.org/2000/svg" xmlns:xlink="http://www.w3.org/1999/xlink">
    <title>Artboard</title>
    <g id="Artboard" stroke="none" stroke-width="1" fill="none" fill-rule="evenodd">
        <g id="logotype_invert" transform="translate(0.000000, 0.590000)" fill="#FFFFFF" fill-rule="nonzero">
            <path d="M2082.34,147.12 L2163.34,147.12 L2163.34,189.24 L2164.42,189.24 C2173.08667,173.04 2183.34667,160.89 2195.2,152.79 C2207.05333,144.69 2221.98667,140.64 2240,140.64 C2244.67,140.64 2249.36,140.82 2254,141.18 C2258.39175,141.488467 2262.74447,142.211688 2267,143.34 L2267,217.34 C2261.43711,215.586511 2255.75596,214.23306 2250,213.29 C2244.19533,212.372943 2238.32663,211.921504 2232.45,211.94 C2216.97,211.94 2204.73,214.1 2195.73,218.42 C2187.22908,222.329153 2180.03272,228.602108 2175,236.49 C2170.14,244.23 2166.99,253.5 2165.55,264.3 C2164.04673,276.119545 2163.32517,288.025418 2163.39,299.94 L2163.39,409.56 L2082.39,409.56 L2082.34,147.12 Z" id="Path"></path>
            <path d="M2519.2,364.2 C2506.19278,380.797193 2489.3223,393.959882 2470.06,402.54 C2450.75374,411.426984 2429.75347,416.032308 2408.5,416.04 C2389.07667,416.171831 2369.78193,412.881568 2351.5,406.32 C2334.32587,400.227924 2318.5383,390.77374 2305.06,378.51 C2291.82007,366.316658 2281.24523,351.516647 2274,335.04 C2266.44,318.12 2262.66,299.22 2262.66,278.34 C2262.66,257.46 2266.44,238.56 2274,221.64 C2281.24229,205.164246 2291.81368,190.364304 2305.05,178.17 C2318.54448,165.919629 2334.34574,156.482382 2351.53,150.41 C2369.81193,143.848432 2389.10667,140.558169 2408.53,140.69 C2427.25,140.69 2444.25,143.93 2459.53,150.41 C2474.43413,156.606445 2487.73061,166.11712 2498.41,178.22 C2509.03,190.28 2517.22,204.77 2522.98,221.69 C2528.74,238.61 2531.62,257.51 2531.62,278.39 L2531.62,303.77 L2343.7,303.77 C2346.94,319.25 2353.96,331.583333 2364.76,340.77 C2375.56,349.956667 2388.89333,354.546667 2404.76,354.54 C2418.09333,354.54 2429.34333,351.57 2438.51,345.63 C2447.85345,339.521239 2455.98964,331.741013 2462.51,322.68 L2519.2,364.2 Z M2450.62,248.64 C2450.98,234.96 2446.48,223.26 2437.12,213.54 C2427.76,203.82 2415.7,198.96 2400.94,198.96 C2392.81088,198.797608 2384.73169,200.266551 2377.18,203.28 C2370.72725,205.914524 2364.7871,209.661391 2359.63,214.35 C2354.83769,218.756367 2350.98113,224.082089 2348.29,230.01 C2345.60783,235.878112 2344.05088,242.197511 2343.7,248.64 L2450.62,248.64 Z" id="Shape"></path>
            <path d="M2834.56,409.56 L2760,409.56 L2760,375 L2759,375 C2755.29029,380.207202 2751.03628,385.004282 2746.31,389.31 C2740.73301,394.428434 2734.5702,398.869281 2727.95,402.54 C2720.59554,406.633399 2712.80737,409.893561 2704.73,412.26 C2696.22882,414.780273 2687.40689,416.053541 2678.54,416.040107 C2659.1,416.040107 2641.46,412.706667 2625.62,406.04 C2610.19609,399.670469 2596.29986,390.099557 2584.85,377.96 C2573.3066,365.568412 2564.39693,350.963904 2558.66,335.03 C2552.52667,318.47 2549.46667,300.29 2549.47833,280.49 C2549.39958,262.602473 2552.22642,244.820737 2557.85,227.84 C2563.10162,211.713867 2571.1437,196.63497 2581.61,183.29 C2591.7815,170.400516 2604.57347,159.817228 2619.14,152.24 C2633.9,144.5 2650.64,140.63 2669.36,140.63 C2685.44412,140.490102 2701.43077,143.139318 2716.61,148.46 C2731.00223,153.543762 2743.5203,162.861723 2752.52,175.19 L2753.6,175.19 L2753.6,1.32 L2834.6,1.32 L2834.56,409.56 Z M2760.00001,278.34 C2760.00001,258.54 2754.33333,242.52 2743,230.28 C2731.66667,218.04 2715.73667,211.92 2695.21,211.92 C2674.69,211.92 2658.76,218.04 2647.41999,230.28 C2636.08,242.52 2630.41333,258.54 2630.41999,278.34 C2630.41999,298.14 2636.08667,314.16 2647.41999,326.4 C2658.75333,338.64 2674.68333,344.76 2695.21,344.76 C2715.73,344.76 2731.66,338.64 2743,326.4 C2754.34,314.16 2760.00667,298.14 2760.00001,278.34 Z" id="Shape"></path>
            <path d="M0,34.29 L126.33,34.29 C155.709386,34.145125 184.996405,37.5906567 213.54,44.55 C241.08,51.39 265.11,62.46 285.63,77.76 C306.15,93.06 322.44,112.943333 334.5,137.41 C346.56,161.89 352.59,191.59 352.59,226.51 C352.59,257.47 346.74,284.74 335.04,308.32 C323.799876,331.322267 307.674611,351.59403 287.79,367.72 C267.99,383.72 245.13,395.87 219.21,404.17 C192.839678,412.518347 165.329984,416.708565 137.67,416.592447 L0,416.592447 L0,34.29 Z M84.24,338.85 L128,338.85 C146.259139,338.981251 164.471559,336.987852 182.27,332.91 C199.01,328.95 213.5,322.38 225.74,313.2 C237.98,304.02 247.61,291.96 254.63,277.02 C261.65,262.08 265.16,243.81 265.16,222.21 C265.16,203.49 261.65,187.2 254.63,173.34 C247.94267,159.881948 238.241188,148.147775 226.28,139.05 C214.4,130.05 200.45,123.3 184.43,118.8 C167.989582,114.243284 151.000038,111.971955 133.94,112.048055 L84.21,112.048055 L84.24,338.85 Z" id="Shape"></path>
            <path d="M626.36,371.25 C613.352784,387.847193 596.482296,401.009882 577.22,409.59 C557.913744,418.476984 536.913469,423.082308 515.66,423.09 C496.236673,423.221831 476.941926,419.931568 458.66,413.37 C441.485874,407.277924 425.698304,397.82374 412.22,385.56 C399.001709,373.360889 388.447591,358.561292 381.22,342.09 C373.646667,325.17 369.86,306.276667 369.86,285.41 C369.86,264.543333 373.64,245.643333 381.2,228.71 C388.427591,212.238708 398.981709,197.439111 412.2,185.24 C425.691314,172.963426 441.496499,163.502073 458.69,157.41 C476.971926,150.848432 496.266673,147.558169 515.69,147.69 C534.41,147.69 551.41,150.93 566.69,157.41 C581.594132,163.606445 594.89061,173.11712 605.57,185.22 C616.19,197.28 624.38,211.77 630.14,228.69 C635.9,245.61 638.78,264.51 638.78,285.39 L638.78,310.77 L450.86,310.77 C454.1,326.25 461.12,338.583333 471.92,347.77 C482.72,356.956667 496.053333,361.546667 511.92,361.54 C525.253333,361.54 536.503333,358.57 545.67,352.63 C555.017882,346.506416 563.154355,338.708963 569.67,329.63 L626.36,371.25 Z M557.78,255.69 C558.14,242.01 553.64,230.31 544.28,220.59 C534.92,210.87 522.86,206.01 508.1,206.01 C499.97088,205.847608 491.891695,207.316551 484.34,210.33 C477.88652,212.967549 471.946318,216.71783 466.79,221.41 C461.997689,225.816367 458.141131,231.142089 455.45,237.07 C452.76783,242.938112 451.210877,249.257511 450.86,255.7 L557.78,255.69 Z" id="Shape"></path>
            <path d="M844,238.95 C839.676896,232.880349 833.928294,227.966221 827.26,224.64 C820.103163,220.871585 812.128212,218.924213 804.04,218.97 C783.52,218.97 767.59,225.09 756.25,237.33 C744.91,249.57 739.243333,265.59 739.25,285.39 C739.25,305.19 744.916667,321.21 756.25,333.45 C767.583333,345.69 783.5,351.81 804,351.81 C812.993333,351.81 820.733333,349.83 827.22,345.87 C833.489897,342.096373 839.136943,337.373635 843.96,331.87 L897.42,388.03 C885.14851,400.782836 869.809076,410.172428 852.87,415.3 C835.77,420.506667 819.48,423.116667 804,423.13 C784.576606,423.262665 765.281713,419.972378 747,413.41 C729.825874,407.317924 714.038304,397.86374 700.56,385.6 C687.320634,373.408384 676.748761,358.607763 669.51,342.13 C661.983333,325.183333 658.22,306.276667 658.22,285.41 C658.22,264.543333 662,245.643333 669.56,228.71 C676.798761,212.232237 687.370634,197.431616 700.61,185.24 C714.086557,172.969097 729.874246,163.508043 747.05,157.41 C765.331713,150.847622 784.626606,147.557335 804.05,147.69 C819.516667,147.69 835.806667,150.3 852.92,155.52 C869.859076,160.647572 885.19851,170.037164 897.47,182.79 L844,238.95 Z" id="Path"></path>
            <path d="M1153.4,371.25 C1140.39077,387.845171 1123.52083,401.007432 1104.26,409.59 C1084.95304,418.474878 1063.95323,423.080098 1042.7,423.09 C1023.27661,423.222665 1003.98171,419.932378 985.7,413.37 C968.524498,407.280846 952.736378,397.826333 939.26,385.56 C926.038665,373.363572 915.484063,358.563295 908.26,342.09 C900.686667,325.17 896.9,306.276667 896.9,285.41 C896.9,264.543333 900.68,245.643333 908.24,228.71 C915.464063,212.236705 926.018665,197.436428 939.24,185.24 C952.729385,172.960828 968.535121,163.499145 985.73,157.41 C1004.01171,150.847622 1023.30661,147.557335 1042.73,147.69 C1061.44333,147.69 1078.44333,150.93 1093.73,157.41 C1108.63122,163.611681 1121.9266,173.121567 1132.61,185.22 C1143.22333,197.28 1151.41333,211.77 1157.18,228.69 C1162.94667,245.61 1165.82667,264.51 1165.82001,285.39 L1165.82001,310.77 L977.9,310.77 C981.14,326.25 988.16,338.583333 998.96,347.77 C1009.76,356.956667 1023.09333,361.546667 1038.96,361.54 C1052.29333,361.54 1063.54333,358.57 1072.71,352.63 C1082.05573,346.503716 1090.19175,338.706702 1096.71,329.63 L1153.4,371.25 Z M1084.82,255.69 C1085.17333,242.01 1080.67333,230.31 1071.32,220.59 C1061.96667,210.87 1049.90667,206.01 1035.14,206.01 C1026.12667,206.01 1018.20667,207.45 1011.38,210.33 C1004.92528,212.96514 998.984676,216.715674 993.83,221.41 C989.037689,225.816367 985.181131,231.142089 982.49,237.07 C979.803091,242.936461 978.245912,249.256772 977.9,255.7 L1084.82,255.69 Z" id="Shape"></path>
            <path d="M1193.35,154.17 L1271.11,154.17 L1271.11,189.81 L1272.19,189.81 C1275.05134,184.281247 1278.6881,179.189778 1282.99,174.69 C1287.92253,169.441491 1293.55565,164.898654 1299.73,161.19 C1306.66847,157.025232 1314.10806,153.75907 1321.87,151.47 C1330.63342,148.881145 1339.73255,147.607267 1348.87,147.69 C1369.39,147.69 1385.95,150.84 1398.55,157.14 C1410.61615,162.953984 1420.8167,172.025368 1428,183.33 C1435.02,194.49 1439.79,207.63 1442.31,222.75 C1444.91352,238.998852 1446.17777,255.434126 1446.09,271.89 L1446.09,416.61 L1365.09,416.61 L1365.09,288.09 C1365.09,280.53 1364.82,272.7 1364.28,264.6 C1363.83249,256.923095 1362.19286,249.362613 1359.42,242.19 C1356.8962,235.564046 1352.5997,229.759275 1347,225.41 C1341.42,221.09 1333.42,218.93 1323,218.93 C1312.58,218.93 1304.12,220.82 1297.62,224.6 C1291.35791,228.157937 1286.21454,233.394827 1282.77,239.72 C1279.23689,246.358382 1276.94917,253.587588 1276.02,261.05 C1274.91931,269.28388 1274.37807,277.582906 1274.4,285.89 L1274.4,416.61 L1193.4,416.61 L1193.35,154.17 Z" id="Path"></path>
            <path d="M1630.2,231.41 C1618.32,216.65 1602.65333,209.27 1583.2,209.27 C1576.24392,209.294744 1569.39174,210.959822 1563.2,214.13 C1556.72667,217.37 1553.48667,222.95 1553.48,230.87 C1553.48,237.35 1556.81333,242.12 1563.48,245.18 C1571.64439,248.731127 1580.14791,251.445015 1588.86,253.28 C1599.11333,255.62 1610.09,258.14 1621.79,260.84 C1633.31991,263.474455 1644.4127,267.747907 1654.73,273.53 C1664.93284,279.236875 1673.63218,287.288391 1680.11,297.02 C1686.77667,306.92 1690.11,320.15 1690.11,336.71 C1690.11,353.63 1686.42,367.58 1679.04,378.56 C1671.75759,389.44878 1662.05455,398.504947 1650.69,405.02 C1638.62096,411.864834 1625.47216,416.599484 1611.81,419.02 C1597.74792,421.671486 1583.46987,423.010576 1569.16,423.02 C1550.3468,422.952948 1531.63077,420.31864 1513.53,415.19 C1495.47717,410.371764 1479.05752,400.774924 1466,387.41 L1515.15,332.87 C1522.69667,342.203333 1531.06333,349.313333 1540.25,354.2 C1549.43667,359.086667 1560.14667,361.516667 1572.38,361.49 C1581.00699,361.624881 1589.59268,360.271739 1597.76,357.49 C1605.32,354.79 1609.1,349.84 1609.1,342.64 C1609.1,335.8 1605.76667,330.67 1599.1,327.25 C1592.43333,323.83 1583.97333,320.95 1573.72,318.609994 C1563.47333,316.27 1552.49333,313.75 1540.78,311.05 C1529.32418,308.440827 1518.25517,304.356757 1507.85,298.9 C1497.58563,293.496516 1488.85484,285.584457 1482.47,275.9 C1475.80333,266 1472.47,252.77 1472.47,236.21 C1472.47,220.73 1475.62333,207.396667 1481.93,196.21 C1488.02391,185.274983 1496.51239,175.860054 1506.76,168.67 C1517.48872,161.256639 1529.47755,155.858614 1542.14,152.74 C1555.36987,149.330106 1568.97776,147.60644 1582.64,147.609994 C1600.36383,147.675025 1617.99139,150.219694 1635.01,155.17 C1652.13833,159.901152 1667.64076,169.239966 1679.83,182.17 L1630.2,231.41 Z" id="Path"></path>
            <path d="M2055.00005,284.67 C2055.04142,251.577099 2028.2479,224.716425 1995.155,224.675003 C1962.0621,224.633582 1935.20142,251.427099 1935.16,284.52 L1935.16,284.52 C1935.16463,327.258086 1900.57024,361.933202 1857.83226,362.028196 C1815.09428,362.12319 1780.34609,327.602202 1780.16073,284.864518 C1779.97537,242.126834 1814.4228,207.30573 1857.16,207.03 L1857.16,207.03 C1878.75362,207.308953 1898.82739,195.948714 1909.70553,177.293199 C1920.58366,158.637685 1920.58366,135.572315 1909.70553,116.916801 C1898.82739,98.2612864 1878.75362,86.9010474 1857.16,87.18 L1857.16,137 C1776.07,137.28 1710.16,203.34 1710.16,284.5 C1710.16,365.83 1776.33,432 1857.66,432 C1938.99,432 2005.08,365.91 2005.16,284.65 L2055.00005,284.67 Z" id="Path"></path>
            <circle id="Oval" cx="1931.06" cy="35.74" r="22.41"></circle>
            <circle id="Oval" cx="2124.65" cy="22.41" r="22.41"></circle>
            <circle id="Oval" cx="2014.12" cy="78.2" r="22.41"></circle>
            <circle id="Oval" cx="2073.79" cy="109.05" r="22.41"></circle>
            <circle id="Oval" cx="2027.44" cy="183.24" r="22.41"></circle>
            <circle id="Oval" cx="1953.34" cy="137.55" r="22.41"></circle>
            <circle id="Oval" cx="1964.26" cy="200.19" r="22.41"></circle>
            <circle id="Oval" cx="1841.48" cy="238.6" r="22.41"></circle>
            <circle id="Oval" cx="1904.54" cy="235.15" r="22.41"></circle>
            <circle id="Oval" cx="1903.59" cy="298.86" r="22.41"></circle>
            <circle id="Oval" cx="1811.35" cy="289.35" r="22.41"></circle>
            <circle id="Oval" cx="1855.06" cy="330.84" r="22.41"></circle>
        </g>
    </g>
</svg>