<?xml version="1.0" encoding="UTF-8"?>
<svg width="800px" height="175px" viewBox="0 0 800 175" version="1.1" xmlns="http://www.w3.org/2000/svg" xmlns:xlink="http://www.w3.org/1999/xlink">
    <title>Artboard</title>
    <defs>
        <linearGradient x1="-3.62905002e-05%" y1="49.9987135%" x2="100.016588%" y2="49.9987135%" id="linearGradient-1">
            <stop stop-color="#332371" offset="0%"></stop>
            <stop stop-color="#4A1089" offset="28%"></stop>
            <stop stop-color="#4510AA" offset="64%"></stop>
            <stop stop-color="#211A41" offset="100%"></stop>
        </linearGradient>
        <linearGradient x1="-0.910132134%" y1="-1.53134493%" x2="104.178691%" y2="104.861349%" id="linearGradient-2">
            <stop stop-color="#C161FF" offset="5%"></stop>
            <stop stop-color="#594CC5" offset="46%"></stop>
            <stop stop-color="#0043AC" offset="100%"></stop>
        </linearGradient>
        <linearGradient x1="80.8587332%" y1="85.4677944%" x2="-2.11864833%" y2="0.52374204%" id="linearGradient-3">
            <stop stop-color="#C161FF" offset="5%"></stop>
            <stop stop-color="#594CC5" offset="46%"></stop>
            <stop stop-color="#0043AC" offset="100%"></stop>
        </linearGradient>
        <linearGradient x1="-0.433232915%" y1="60.3183531%" x2="101.030591%" y2="41.0409801%" id="linearGradient-4">
            <stop stop-color="#9AE7FF" offset="0%"></stop>
            <stop stop-color="#52B5C5" offset="100%"></stop>
        </linearGradient>
    </defs>
    <g id="Artboard" stroke="none" stroke-width="1" fill="none" fill-rule="evenodd">
        <g id="Asset-2" transform="translate(-297.000000, -39.000000)" fill-rule="nonzero">
            <rect id="Rectangle" fill="#FFFFFF" x="0" y="0" width="1664" height="763"></rect>
            <path d="M1522.42838,104.941045 C1498.83909,142.325743 1464.6677,175.75206 1448.79453,215.687714 C1436.00782,247.706608 1435.12597,283.683881 1410.87531,311.216612 C1379.5699,346.402209 1319.9353,356.869925 1275.07157,381.587807 C1232.32195,405.241611 1203.56459,441.825602 1195.48529,482.834364 C1188.43055,519.691278 1198.7922,557.251903 1195.48529,594.460673 C1192.17838,631.669442 1170.57324,672.748628 1125.92997,683.480235 C1101.63082,687.913129 1076.2281,686.47392 1052.9575,679.345927 C969.513161,658.410497 897.643001,615.74796 817.174878,587.775409 C733.730536,558.923219 642.900764,546.696224 552.622143,537.987789 C473.146092,530.334921 385.953919,522.418162 330.618306,476.412993 C266.133577,422.84292 269.109795,338.309522 230.529188,270.753174 C211.679805,237.766676 182.579004,208.386702 169.241137,173.992781 C151.494058,127.635756 164.391004,77.2323869 189.082592,32.4587139 C195.035029,21.1113586 201.869308,10.4677153 208.924048,0 L1538.63223,0 C1554.5054,32.8105698 1542.71075,72.5702952 1522.42838,104.941045 Z" id="Path" fill="#EFEFEF"></path>
            <path d="M1397.64245,188.700922 C1367.57167,221.029572 1342.56777,259.683392 1297.51668,277.780408 C1227.46169,305.540879 1124.25175,277.780408 1078.64991,328.90887 C1045.6051,365.629999 1069.83796,415.879966 1090.43589,458.04777 C1111.03382,500.215573 1121.38786,556.96641 1074.68453,582.442791 C1060.66413,589.598656 1044.29251,593.26812 1027.65076,592.984742 C971.254289,592.984742 927.524994,561.710287 881.372414,533.071321 C857.205893,516.530811 829.775744,503.291868 800.192338,493.890403 C786.182179,490.098768 771.64595,487.679796 756.903641,486.686736 C696.101196,482.118558 631.99427,497.580086 569.649734,495.471696 C481.443462,491.310397 401.750129,452.105535 357.502073,391.106381 C322.364428,341.91061 312.010388,280.942993 262.553327,240.532181 C246.801969,227.530442 227.415682,217.339889 213.426714,203.283955 C187.761914,177.456175 182.695044,141.789241 187.761914,109.284892 C194.457194,69.217507 214.887186,31.4009851 246.801969,0 L1480.47477,0 C1489.03355,11.371296 1494.44183,24.0717884 1496.33627,37.2482268 C1504.15688,95.4046563 1441.15145,141.613541 1397.64245,188.700922 Z" id="Path" fill="url(#linearGradient-1)"></path>
        </g>
        <g id="planet1" transform="translate(627.000000, -68.000000)" fill-rule="nonzero">
            <path d="M215.730296,87.4834461 C215.789078,114.368186 203.460836,139.781394 182.30934,156.376782 C161.157844,172.97217 133.541145,178.899619 107.442503,172.445659 C102.54748,171.264218 97.7715201,169.63497 93.1749962,167.578511 C81.6158352,162.509881 71.3020779,154.979699 62.9535938,145.513548 C60.7998747,143.096373 58.7873393,140.557011 56.9260103,137.908106 C56.2330886,136.897943 55.5485154,135.904477 54.8806391,134.877618 C54.4715649,134.301574 54.1042329,133.700486 53.736901,133.0827 C53.0439793,131.888871 52.3343608,130.695042 51.6664845,129.476168 C49.1450676,124.864945 47.0492811,120.033458 45.4051442,115.041692 C44.4803159,112.256518 43.7000857,109.425397 43.0675772,106.559663 C42.1571053,102.404591 41.55162,98.1885165 41.2559627,93.9451493 C41.0722967,91.8079451 40.980431,89.6456956 40.980431,87.4834461 C40.9396569,39.8313859 79.0676107,0.923719328 126.710735,0 C127.261733,0 127.81273,0 128.380425,0 C129.215271,0 130.050116,0 130.834871,0.0667876294 C135.503618,0.172393715 140.15564,0.663843835 144.743395,1.53611548 C147.654762,2.07375503 150.533882,2.77332838 153.367347,3.63157735 C154.97025,4.11578766 156.598199,4.64174025 158.15936,5.21778355 C192.730756,17.8225712 215.742402,50.6858692 215.76369,87.4834461 L215.730296,87.4834461 Z" id="Path" fill="url(#linearGradient-2)"></path>
            <path d="M215.730505,87.4834461 C215.789078,114.368186 203.460836,139.781394 182.30934,156.376782 C161.157844,172.97217 133.541145,178.899619 107.442503,172.445659 C102.54748,171.264218 97.7715201,169.63497 93.1749962,167.578511 C108.152122,166.493212 122.928885,163.738222 135.568444,155.949115 C146.721978,149.095034 155.320885,138.684513 160.96444,126.804663 C163.644795,121.212666 165.670198,115.329755 167.000372,109.27291 C171.015978,91.1651142 169.337939,72.0471553 174.388754,54.1731159 C176.317246,47.3440808 179.32269,40.6402725 184.406898,35.7146848 C187.155219,33.0476001 190.497046,31.0705431 194.157892,29.9459034 C208.092031,45.8721598 215.759253,66.3220418 215.730505,87.4834461 Z" id="Path" fill="url(#linearGradient-3)" opacity="0.59"></path>
            <path d="M269.21049,38.1691302 C262.924105,21.3302992 232.477294,16.5466352 188.631216,24.160425 C192.111099,27.4167613 195.288199,30.9822673 198.123407,34.8130518 C219.178208,33.1433611 229.730653,36.674757 232.894717,45.156786 C239.08927,61.7952541 198.615966,92.2921554 142.522706,113.246774 C86.4294456,134.201393 35.8962555,137.749486 29.7100513,121.052578 C27.1220306,114.123362 30.1692162,107.068918 41.5231132,97.0340771 C41.1307359,92.4340791 41.0722967,87.2246441 41.1223875,82.5328131 C10.2331088,103.362205 -4.43512427,123.248222 1.1750366,138.308832 C10.4167748,163.128785 77.9140228,160.807915 151.931413,133.166185 C225.948803,105.524455 278.452229,62.989083 269.21049,38.1691302 Z" id="Path" fill="url(#linearGradient-4)"></path>
        </g>
    </g>
</svg>