<?xml version="1.0" encoding="UTF-8"?>
<svg width="1200pt" height="1200pt" version="1.1" viewBox="0 0 1200 1200" xmlns="http://www.w3.org/2000/svg">
 <g fill="#4c25e0">
  <path d="m525 1050c32.043 0 63.355-3.1133 93.75-8.8125v-178.69c0-41.363 33.637-75 75-75h274.99c39.805-72.32 62.512-155.36 62.512-243.75 0-279.6-226.65-506.25-506.25-506.25s-506.25 226.65-506.25 506.25 226.65 506.25 506.25 506.25zm-243.75-637.5 243.75-150 243.75 150v262.5l-243.75 150-243.75-150z"/>
  <path d="m1181.2 862.5c0-20.719-16.781-37.5-37.5-37.5h-450c-20.719 0-37.5 16.781-37.5 37.5v262.5c0 20.719 16.781 37.5 37.5 37.5h450c20.719 0 37.5-16.781 37.5-37.5zm-412.5 112.5c31.012 0 56.25 25.238 56.25 56.25 0 24.414-15.73 45.039-37.5 52.801v22.199h-37.5v-22.199c-21.77-7.7617-37.5-28.387-37.5-52.801h37.5c0 10.332 8.3984 18.75 18.75 18.75s18.75-8.418 18.75-18.75-8.3984-18.75-18.75-18.75c-31.012 0-56.25-25.238-56.25-56.25 0-24.414 15.73-45.039 37.5-52.801v-22.199h37.5v22.199c21.77 7.7617 37.5 28.387 37.5 52.801h-37.5c0-10.332-8.3984-18.75-18.75-18.75s-18.75 8.418-18.75 18.75 8.3984 18.75 18.75 18.75zm150 0c31.012 0 56.25 25.238 56.25 56.25 0 24.414-15.73 45.039-37.5 52.801v22.199h-37.5v-22.199c-21.77-7.7617-37.5-28.387-37.5-52.801h37.5c0 10.332 8.3984 18.75 18.75 18.75s18.75-8.418 18.75-18.75-8.3984-18.75-18.75-18.75c-31.012 0-56.25-25.238-56.25-56.25 0-24.414 15.73-45.039 37.5-52.801v-22.199h37.5v22.199c21.77 7.7617 37.5 28.387 37.5 52.801h-37.5c0-10.332-8.3984-18.75-18.75-18.75s-18.75 8.418-18.75 18.75 8.3984 18.75 18.75 18.75zm150 0c31.012 0 56.25 25.238 56.25 56.25 0 24.414-15.73 45.039-37.5 52.801v22.199h-37.5v-22.199c-21.77-7.7617-37.5-28.387-37.5-52.801h37.5c0 10.332 8.3984 18.75 18.75 18.75s18.75-8.418 18.75-18.75-8.3984-18.75-18.75-18.75c-31.012 0-56.25-25.238-56.25-56.25 0-24.414 15.73-45.039 37.5-52.801v-22.199h37.5v22.199c21.77 7.7617 37.5 28.387 37.5 52.801h-37.5c0-10.332-8.3984-18.75-18.75-18.75s-18.75 8.418-18.75 18.75 8.3984 18.75 18.75 18.75z"/>
  <path d="m375 468.75h37.5v150h-37.5z"/>
  <path d="m581.25 468.75h-112.5v150h112.5zm-37.5 112.5h-37.5v-75h37.5z"/>
  <path d="m637.5 468.75h37.5v150h-37.5z"/>
 </g>
</svg>
