<svg id="Layer_2" data-name="Layer 2" xmlns="http://www.w3.org/2000/svg" viewBox="0 0 500 500"><defs><style>.cls-1{fill:#fff}</style></defs><path class="cls-1" d="M376.05 321.68a59.93 59.93 0 1 0-119.85 0 77.5 77.5 0 1 1-78-77.74 59.93 59.93 0 0 0 0-119.85v49.82c-81.1.28-147 66.33-147 147.49 0 81.33 66.16 147.5 147.5 147.5s147.36-66 147.49-147.25Z"/><circle class="cls-1" cx="260.75" cy="81.89" r="22.41"/><circle class="cls-1" cx="441.66" cy="65.73" r="22.41"/><circle class="cls-1" cx="449.2" cy="232.45" r="22.41"/><circle class="cls-1" cx="395.69" cy="159.04" r="22.41"/><circle class="cls-1" cx="333.97" cy="125.63" r="22.41"/><circle class="cls-1" cx="345.02" cy="222.73" r="22.41"/><circle class="cls-1" cx="271.02" cy="176.7" r="22.41"/><circle class="cls-1" cx="281.67" cy="239.33" r="22.41"/><circle class="cls-1" cx="162.51" cy="275.51" r="22.41"/><circle class="cls-1" cx="225.56" cy="272.07" r="22.41"/><circle class="cls-1" cx="224.61" cy="335.78" r="22.41"/><circle class="cls-1" cx="132.37" cy="326.27" r="22.41"/><circle class="cls-1" cx="176.09" cy="367.76" r="22.41"/></svg>