<?xml version="1.0" standalone="no"?>
<!DOCTYPE svg PUBLIC "-//W3C//DTD SVG 20010904//EN"
 "http://www.w3.org/TR/2001/REC-SVG-20010904/DTD/svg10.dtd">
<svg version="1.0" xmlns="http://www.w3.org/2000/svg"
 width="1024.000000pt" height="1024.000000pt" viewBox="0 0 1024.000000 1024.000000"
 preserveAspectRatio="xMidYMid meet">
<metadata>
Created by potrace 1.14, written by Peter Selinger 2001-2017
</metadata>
<g transform="translate(0.000000,1024.000000) scale(0.100000,-0.100000)"
fill="#000000" stroke="none">
<path d="M8922 9334 c-192 -51 -334 -236 -333 -434 1 -36 2 -72 4 -80 15 -68
23 -92 47 -140 89 -173 310 -278 497 -234 74 17 109 32 160 66 188 127 257
373 162 578 -31 67 -116 161 -176 197 -103 60 -245 79 -361 47z"/>
<path d="M5208 9001 c-281 -92 -405 -394 -270 -657 69 -133 221 -229 377 -238
251 -14 468 180 480 429 11 225 -129 418 -345 473 -8 2 -53 5 -100 8 -65 3
-98 0 -142 -15z"/>
<path d="M6742 8115 c-131 -30 -251 -123 -310 -241 -35 -70 -42 -99 -48 -179
-14 -201 114 -395 301 -459 291 -99 594 102 610 404 4 74 -12 165 -38 220 -6
14 -28 48 -49 76 -106 147 -292 218 -466 179z"/>
<path d="M3650 7191 c0 -281 -3 -511 -7 -512 -5 0 -51 -2 -103 -4 -98 -4 -206
-12 -250 -20 -14 -2 -47 -7 -75 -10 -192 -23 -505 -108 -682 -186 -24 -11 -45
-19 -49 -19 -15 0 -269 -129 -358 -182 -138 -82 -346 -228 -402 -283 -6 -5
-37 -32 -69 -60 -48 -42 -147 -140 -263 -262 -57 -60 -214 -273 -288 -390
-157 -247 -269 -497 -349 -778 -32 -114 -37 -135 -50 -202 -3 -16 -8 -35 -10
-43 -6 -21 -33 -202 -42 -286 -16 -144 -9 -567 12 -699 3 -17 7 -43 10 -60 2
-16 7 -48 10 -70 4 -22 10 -56 15 -75 5 -19 11 -47 14 -61 16 -94 84 -309 149
-468 193 -480 531 -927 937 -1241 25 -19 47 -37 50 -40 14 -14 202 -140 269
-179 247 -146 596 -290 811 -335 213 -45 245 -51 355 -65 307 -41 676 -27 970
36 39 8 81 17 95 19 14 3 81 21 150 41 211 60 475 172 655 278 33 19 68 38 78
41 9 4 17 10 17 15 0 5 4 9 10 9 16 0 183 117 297 209 98 78 306 277 378 361
214 249 377 511 503 805 50 118 133 356 147 422 2 10 9 41 15 68 13 54 15 63
29 140 10 51 26 163 36 245 3 25 8 101 11 170 3 69 8 127 10 129 2 2 232 3
510 2 l507 -1 -6 102 c-24 419 -290 820 -673 1011 -72 36 -191 82 -234 91 -14
3 -47 11 -75 16 -70 16 -147 23 -240 23 -435 1 -837 -229 -1057 -603 -64 -109
-129 -275 -144 -370 -2 -14 -6 -34 -8 -45 -8 -37 -16 -129 -21 -255 -3 -69 -7
-136 -9 -150 -2 -14 -8 -47 -12 -75 -4 -27 -8 -54 -10 -60 -1 -5 -7 -32 -14
-60 -29 -130 -108 -317 -190 -450 -149 -243 -382 -456 -645 -589 -85 -43 -266
-110 -327 -120 -15 -3 -31 -7 -35 -9 -5 -3 -29 -8 -55 -11 -26 -4 -67 -10 -92
-15 -52 -10 -348 -7 -421 3 -27 5 -94 19 -147 32 -333 83 -587 238 -833 508
-58 63 -154 207 -202 301 -123 241 -174 445 -178 707 -2 170 9 261 51 427 122
482 477 883 953 1075 168 68 322 98 576 111 94 5 179 13 205 20 8 2 29 7 46 9
116 20 321 113 446 203 213 154 402 423 464 663 31 119 37 169 38 305 1 171
-6 238 -35 345 -122 442 -478 782 -924 880 -57 13 -73 15 -172 25 l-73 7 0
-511z"/>
<path d="M7975 7424 c-169 -58 -285 -184 -318 -346 -32 -157 15 -312 128 -424
147 -146 400 -170 570 -53 208 141 267 402 140 618 -60 102 -175 185 -291 211
-62 14 -178 11 -229 -6z"/>
<path d="M5425 7061 c-180 -51 -310 -208 -331 -398 -19 -182 92 -375 260 -454
249 -117 534 3 632 266 13 35 15 48 19 126 11 203 -111 383 -308 455 -63 23
-199 26 -272 5z"/>
<path d="M6962 6125 c-149 -35 -287 -161 -333 -305 -25 -76 -24 -206 1 -280
61 -182 214 -303 401 -317 378 -29 625 393 416 709 -60 89 -136 148 -240 182
-64 21 -179 27 -245 11z"/>
<path d="M9115 5930 c-134 -24 -266 -123 -326 -246 -52 -108 -60 -248 -21
-357 110 -304 492 -404 735 -190 94 82 144 188 152 318 17 293 -247 525 -540
475z"/>
<path d="M5655 5780 c-109 -32 -175 -73 -238 -149 -95 -116 -129 -263 -92
-406 89 -339 510 -458 761 -216 145 142 181 360 88 543 -33 66 -125 158 -189
191 -105 52 -228 67 -330 37z"/>
<path d="M4516 5114 c-157 -38 -292 -165 -337 -319 -17 -55 -21 -151 -10 -211
66 -358 514 -498 771 -241 88 88 130 186 135 312 4 132 -39 241 -134 336 -113
113 -272 159 -425 123z"/>
<path d="M3234 5045 c-203 -43 -354 -221 -363 -427 -12 -270 215 -493 483
-475 96 6 175 34 243 85 57 44 74 61 117 127 91 138 95 329 10 472 -46 76 -76
107 -147 154 -100 65 -224 88 -343 64z"/>
<path d="M2615 4006 c-151 -30 -289 -153 -340 -306 -27 -77 -25 -216 2 -292
43 -117 131 -214 239 -264 180 -82 385 -45 523 96 170 173 173 445 8 626 -110
121 -268 172 -432 140z"/>
<path d="M4580 3823 c-171 -20 -302 -101 -378 -236 -120 -210 -49 -487 156
-611 82 -49 145 -67 237 -68 349 -4 573 368 407 676 -37 68 -116 145 -190 184
-61 33 -180 60 -232 55z"/>
<path d="M3500 3154 c-165 -44 -294 -169 -336 -328 -54 -201 45 -428 226 -521
256 -130 556 -12 649 257 83 238 -49 501 -292 582 -69 23 -181 27 -247 10z"/>
</g>
</svg>
