<svg width="2835" height="434" xmlns="http://www.w3.org/2000/svg"><g fill="#FFF" fill-rule="nonzero"><path d="M2082.34 147.71h81v42.12h1.08c8.667-16.2 18.927-28.35 30.78-36.45 11.853-8.1 26.787-12.15 44.8-12.15 4.67 0 9.36.18 14 .54a69.81 69.81 0 0 1 13 2.16v74a122.35 122.35 0 0 0-17-4.05 110.24 110.24 0 0 0-17.55-1.35c-15.48 0-27.72 2.16-36.72 6.48a48.75 48.75 0 0 0-20.73 18.07c-4.86 7.74-8.01 17.01-9.45 27.81a270.8 270.8 0 0 0-2.16 35.64v109.62h-81l-.05-262.44ZM2519.2 364.79a129.25 129.25 0 0 1-49.14 38.34 147.35 147.35 0 0 1-61.56 13.5 165.41 165.41 0 0 1-57-9.72 137.12 137.12 0 0 1-46.44-27.81 130.52 130.52 0 0 1-31.06-43.47c-7.56-16.92-11.34-35.82-11.34-56.7 0-20.88 3.78-39.78 11.34-56.7a130.52 130.52 0 0 1 31.05-43.47 137.12 137.12 0 0 1 46.48-27.76 165.41 165.41 0 0 1 57-9.72c18.72 0 35.72 3.24 51 9.72a106.25 106.25 0 0 1 38.88 27.81c10.62 12.06 18.81 26.55 24.57 43.47 5.76 16.92 8.64 35.82 8.64 56.7v25.38H2343.7c3.24 15.48 10.26 27.813 21.06 37 10.8 9.187 24.133 13.777 40 13.77 13.333 0 24.583-2.97 33.75-8.91a90.75 90.75 0 0 0 24-22.95l56.69 41.52Zm-68.58-115.56c.36-13.68-4.14-25.38-13.5-35.1-9.36-9.72-21.42-14.58-36.18-14.58a60.83 60.83 0 0 0-23.76 4.32 59.55 59.55 0 0 0-17.55 11.07 48.52 48.52 0 0 0-11.34 15.66 51.56 51.56 0 0 0-4.59 18.63h106.92ZM2834.56 410.15H2760v-34.56h-1a90 90 0 0 1-12.69 14.31 96 96 0 0 1-18.36 13.23 113.17 113.17 0 0 1-23.22 9.72 91.654 91.654 0 0 1-26.19 3.78c-19.44 0-37.08-3.333-52.92-10a117.91 117.91 0 0 1-40.77-28.08 125.21 125.21 0 0 1-26.19-42.93c-6.133-16.56-9.193-34.74-9.182-54.54a165.158 165.158 0 0 1 8.372-52.65 144.89 144.89 0 0 1 23.76-44.55 116 116 0 0 1 37.53-31.05c14.76-7.74 31.5-11.61 50.22-11.61a139.18 139.18 0 0 1 47.25 7.83 75.66 75.66 0 0 1 35.91 26.73h1.08V1.91h81l-.04 408.24ZM2760 278.93c0-19.8-5.667-35.82-17-48.06-11.333-12.24-27.263-18.36-47.79-18.36-20.52 0-36.45 6.12-47.79 18.36-11.34 12.24-17.007 28.26-17 48.06 0 19.8 5.667 35.82 17 48.06 11.333 12.24 27.263 18.36 47.79 18.36 20.52 0 36.45-6.12 47.79-18.36 11.34-12.24 17.007-28.26 17-48.06ZM0 34.88h126.33a360.66 360.66 0 0 1 87.21 10.26c27.54 6.84 51.57 17.91 72.09 33.21 20.52 15.3 36.81 35.183 48.87 59.65 12.06 24.48 18.09 54.18 18.09 89.1 0 30.96-5.85 58.23-17.55 81.81a175.92 175.92 0 0 1-47.25 59.4c-19.8 16-42.66 28.15-68.58 36.45a266.457 266.457 0 0 1-81.54 12.422H0V34.88Zm84.24 304.56H128a235.43 235.43 0 0 0 54.27-5.94c16.74-3.96 31.23-10.53 43.47-19.71 12.24-9.18 21.87-21.24 28.89-36.18 7.02-14.94 10.53-33.21 10.53-54.81 0-18.72-3.51-35.01-10.53-48.87a97.71 97.71 0 0 0-28.35-34.29c-11.88-9-25.83-15.75-41.85-20.25a185.928 185.928 0 0 0-50.49-6.752H84.21l.03 226.802ZM626.36 371.84a129.25 129.25 0 0 1-49.14 38.34 147.35 147.35 0 0 1-61.56 13.5 165.41 165.41 0 0 1-57-9.72 137.12 137.12 0 0 1-46.44-27.81 130.52 130.52 0 0 1-31-43.47c-7.573-16.92-11.36-35.813-11.36-56.68 0-20.867 3.78-39.767 11.34-56.7a130.52 130.52 0 0 1 31-43.47A137.12 137.12 0 0 1 458.69 158a165.41 165.41 0 0 1 57-9.72c18.72 0 35.72 3.24 51 9.72a106.25 106.25 0 0 1 38.88 27.81c10.62 12.06 18.81 26.55 24.57 43.47 5.76 16.92 8.64 35.82 8.64 56.7v25.38H450.86c3.24 15.48 10.26 27.813 21.06 37 10.8 9.187 24.133 13.777 40 13.77 13.333 0 24.583-2.97 33.75-8.91a90.75 90.75 0 0 0 24-23l56.69 41.62Zm-68.58-115.56c.36-13.68-4.14-25.38-13.5-35.1-9.36-9.72-21.42-14.58-36.18-14.58a60.83 60.83 0 0 0-23.76 4.32A59.55 59.55 0 0 0 466.79 222a48.52 48.52 0 0 0-11.34 15.66 51.56 51.56 0 0 0-4.59 18.63l106.92-.01ZM844 239.54a45.47 45.47 0 0 0-16.74-14.31 49.24 49.24 0 0 0-23.22-5.67c-20.52 0-36.45 6.12-47.79 18.36-11.34 12.24-17.007 28.26-17 48.06 0 19.8 5.667 35.82 17 48.06 11.333 12.24 27.25 18.36 47.75 18.36 8.993 0 16.733-1.98 23.22-5.94a70.81 70.81 0 0 0 16.74-14l53.46 56.16a103.4 103.4 0 0 1-44.55 27.27c-17.1 5.207-33.39 7.817-48.87 7.83a165.37 165.37 0 0 1-57-9.72 137.12 137.12 0 0 1-46.44-27.81 130.38 130.38 0 0 1-31.05-43.47c-7.527-16.947-11.29-35.853-11.29-56.72 0-20.867 3.78-39.767 11.34-56.7a130.38 130.38 0 0 1 31.05-43.47A137.12 137.12 0 0 1 747.05 158a165.37 165.37 0 0 1 57-9.72c15.467 0 31.757 2.61 48.87 7.83a103.4 103.4 0 0 1 44.55 27.27L844 239.54Z"/><path d="M1153.4 371.84a129.32 129.32 0 0 1-49.14 38.34 147.42 147.42 0 0 1-61.56 13.5 165.37 165.37 0 0 1-57-9.72 137 137 0 0 1-46.44-27.81 130.38 130.38 0 0 1-31-43.47c-7.573-16.92-11.36-35.813-11.36-56.68 0-20.867 3.78-39.767 11.34-56.7a130.38 130.38 0 0 1 31-43.47A137 137 0 0 1 985.73 158a165.37 165.37 0 0 1 57-9.72c18.713 0 35.713 3.24 51 9.72a106.42 106.42 0 0 1 38.88 27.81c10.613 12.06 18.803 26.55 24.57 43.47 5.767 16.92 8.647 35.82 8.64 56.7v25.38H977.9c3.24 15.48 10.26 27.813 21.06 37 10.8 9.187 24.133 13.777 40 13.77 13.333 0 24.583-2.97 33.75-8.91a90.9 90.9 0 0 0 24-23l56.69 41.62Zm-68.58-115.56c.353-13.68-4.147-25.38-13.5-35.1-9.353-9.72-21.413-14.58-36.18-14.58-9.013 0-16.933 1.44-23.76 4.32A59.42 59.42 0 0 0 993.83 222a48.52 48.52 0 0 0-11.34 15.66 51.35 51.35 0 0 0-4.59 18.63l106.92-.01ZM1193.35 154.76h77.76v35.64h1.08a65.34 65.34 0 0 1 10.8-15.12 78.3 78.3 0 0 1 16.74-13.5 95.52 95.52 0 0 1 22.14-9.72 92.35 92.35 0 0 1 27-3.78c20.52 0 37.08 3.15 49.68 9.45a71.84 71.84 0 0 1 29.45 26.19c7.02 11.16 11.79 24.3 14.31 39.42a300.47 300.47 0 0 1 3.78 49.14V417.2h-81V288.68c0-7.56-.27-15.39-.81-23.49a74.11 74.11 0 0 0-4.86-22.41A38.68 38.68 0 0 0 1347 226c-5.58-4.32-13.58-6.48-24-6.48s-18.88 1.89-25.38 5.67a38.65 38.65 0 0 0-14.85 15.12 61.6 61.6 0 0 0-6.75 21.33 183.81 183.81 0 0 0-1.62 24.84V417.2h-81l-.05-262.44ZM1630.2 232c-11.88-14.76-27.547-22.14-47-22.14a44.23 44.23 0 0 0-20 4.86c-6.473 3.24-9.713 8.82-9.72 16.74 0 6.48 3.333 11.25 10 14.31a131.67 131.67 0 0 0 25.38 8.1c10.253 2.34 21.23 4.86 32.93 7.56a123.77 123.77 0 0 1 32.94 12.69 73.72 73.72 0 0 1 25.38 23.49c6.667 9.9 10 23.13 10 39.69 0 16.92-3.69 30.87-11.07 41.85a84.91 84.91 0 0 1-28.35 26.46 121.93 121.93 0 0 1-38.88 14 231 231 0 0 1-42.65 4 206.77 206.77 0 0 1-55.63-7.83A103.91 103.91 0 0 1 1466 388l49.15-54.54c7.547 9.333 15.913 16.443 25.1 21.33 9.187 4.887 19.897 7.317 32.13 7.29a75.08 75.08 0 0 0 25.38-4c7.56-2.7 11.34-7.65 11.34-14.85 0-6.84-3.333-11.97-10-15.39s-15.127-6.3-25.38-8.64c-10.247-2.34-21.227-4.86-32.94-7.56a135.87 135.87 0 0 1-32.93-12.15 68.77 68.77 0 0 1-25.38-23c-6.667-9.9-10-23.13-10-39.69 0-15.48 3.153-28.813 9.46-40a83 83 0 0 1 24.83-27.54 107.43 107.43 0 0 1 35.38-15.93 162.1 162.1 0 0 1 40.5-5.13 190 190 0 0 1 52.37 7.56 97.14 97.14 0 0 1 44.82 27L1630.2 232ZM2055 285.26c.041-33.093-26.752-59.954-59.845-59.995-33.093-.041-59.954 26.752-59.995 59.845.005 42.738-34.59 77.413-77.328 77.508-42.738.095-77.486-34.426-77.671-77.163-.186-42.738 34.262-77.56 76.999-77.835a59.93 59.93 0 1 0 0-119.85v49.82c-81.09.28-147 66.34-147 147.5 0 81.33 66.17 147.5 147.5 147.5s147.42-66.09 147.5-147.35l49.84.02Z"/><circle cx="1931.06" cy="36.33" r="22.41"/><circle cx="2124.65" cy="23" r="22.41"/><circle cx="2014.12" cy="78.79" r="22.41"/><circle cx="2073.79" cy="109.64" r="22.41"/><circle cx="2027.44" cy="183.83" r="22.41"/><circle cx="1953.34" cy="138.14" r="22.41"/><circle cx="1964.26" cy="200.78" r="22.41"/><circle cx="1841.48" cy="239.19" r="22.41"/><circle cx="1904.54" cy="235.74" r="22.41"/><circle cx="1903.59" cy="299.45" r="22.41"/><circle cx="1811.35" cy="289.94" r="22.41"/><circle cx="1855.06" cy="331.43" r="22.41"/></g></svg>