<?xml version="1.0" encoding="UTF-8"?>
<svg width="1200pt" height="1200pt" version="1.1" viewBox="0 0 1200 1200" xmlns="http://www.w3.org/2000/svg">
 <g fill="#86A">
  <path d="m260.88 641.91c69.719 0 126.46-56.734 126.46-126.46 0-69.73-56.734-126.46-126.46-126.46-69.73 0-126.46 56.734-126.46 126.46 0.003906 69.734 56.727 126.46 126.46 126.46z"/>
  <path d="m461.76 1018.2v-233.43c0-57.602-34.992-107.16-84.816-128.62-31.559 26.09-72.012 41.785-116.06 41.785-44.051 0-84.504-15.695-116.06-41.785-49.828 21.457-84.82 71.02-84.82 128.62v233.43z"/>
  <path d="m812.66 515.46c0 69.719 56.734 126.46 126.46 126.46 69.73 0 126.46-56.734 126.46-126.46 0-69.73-56.734-126.46-126.46-126.46s-126.46 56.723-126.46 126.46z"/>
  <path d="m939.12 697.91c-44.051 0-84.504-15.695-116.06-41.785-49.824 21.457-84.816 71.004-84.816 128.62v233.43h401.76v-233.43c0-57.602-34.992-107.16-84.816-128.62-31.559 26.09-72.012 41.785-116.06 41.785z"/>
  <path d="m458.1 431.61c0 78.254 63.66 141.9 141.9 141.9s141.9-63.66 141.9-141.9c0-78.242-63.645-141.91-141.9-141.91s-141.9 63.66-141.9 141.91z"/>
  <path d="m783.72 613.16c-14.617-14.93-32.566-26.496-52.609-33.73-34.957 31.031-80.797 50.062-131.11 50.062s-96.156-19.031-131.11-50.062c-20.039 7.2227-37.992 18.805-52.609 33.73 60.434 33.422 101.47 97.777 101.47 171.57v233.43h164.5l0.003906-233.43c0-73.809 41.043-138.17 101.47-171.57z"/>
  <path d="m795.61 403.18c32.293-41.184 81.816-68.102 137.68-69.875 1.6328-8.0898 2.5078-16.453 2.5078-25.02 0-69.719-56.734-126.46-126.46-126.46-51.602 0-96.012 31.105-115.64 75.516 54 29.172 92.785 82.766 101.92 145.84z"/>
  <path d="m404.39 403.18c9-62.172 46.836-115.09 99.648-144.52-20.641-41.855-63.637-70.789-113.36-70.789-69.73 0-126.46 56.734-126.46 126.46 0 6.4453 0.63672 12.73 1.5703 18.926 56.234 1.5117 106.12 28.512 138.6 69.922z"/>
 </g>
</svg>
